<svg t="1769876196683" class="icon" viewBox="0 0 1024 1024" version="1.1" xmlns="http://www.w3.org/2000/svg" p-id="4955" width="200" height="200"><path d="M512 512c0-94.4 76.8-171.2 171.2-171.2 94.4 0 171.2 76.8 171.2 171.2s-76.8 171.2-171.2 171.2C588.8 683.2 512 606.4 512 512z" fill="#1ABCFE" p-id="4956"></path><path d="M171.2 852.8c0-94.4 76.8-171.2 171.2-171.2H512v171.2C512 947.2 435.2 1024 340.8 1024s-169.6-76.8-169.6-171.2z" fill="#0ACF83" p-id="4957"></path><path d="M512 0v340.8h171.2c94.4 0 171.2-76.8 171.2-171.2S777.6 0 683.2 0H512z" fill="#FF7262" p-id="4958"></path><path d="M171.2 171.2c0 94.4 76.8 171.2 171.2 171.2H512V0H340.8c-94.4 0-169.6 76.8-169.6 171.2z" fill="#F24E1E" p-id="4959"></path><path d="M171.2 512c0 94.4 76.8 171.2 171.2 171.2H512V340.8H340.8c-94.4 0-169.6 76.8-169.6 171.2z" fill="#A259FF" p-id="4960"></path></svg>
