<svg width="32" height="32" viewBox="0 0 32 32" fill="none" xmlns="http://www.w3.org/2000/svg">
<g clip-path="url(#clip0_1128_25871)">
<path d="M28.955 12.19H27.435V10.66H25.905V12.19H24.385V13.71H22.865V15.24H24.385V16.76H25.905V18.28H27.435V16.76H28.955V15.24H30.475V13.71H28.955V12.19Z" fill="#000001"/>
<path d="M24.385 10.66H22.865V12.19H24.385V10.66Z" fill="#000001"/>
<path d="M22.865 19.81H21.335V25.9H22.865V19.81Z" fill="#000001"/>
<path d="M22.865 9.14H21.335V10.66H22.865V9.14Z" fill="#000001"/>
<path d="M21.335 25.9H19.815V27.43H21.335V25.9Z" fill="#000001"/>
<path d="M21.335 18.28H19.815V19.81H21.335V18.28Z" fill="#000001"/>
<path d="M21.335 7.62H19.815V9.14H21.335V7.62Z" fill="#000001"/>
<path d="M19.815 15.24H18.285V18.28H19.815V15.24Z" fill="#000001"/>
<path d="M19.815 6.09H18.285V7.62H19.815V6.09Z" fill="#000001"/>
<path d="M19.815 4.57V3.05H18.285V1.52H16.765V0H15.245V1.52H13.715V3.05H12.195V4.57H13.715V6.09H15.245V7.62H16.765V6.09H18.285V4.57H19.815Z" fill="#000001"/>
<path d="M12.195 27.43V30.47H10.675V32H21.335V30.47H19.815V27.43H12.195Z" fill="#000001"/>
<path d="M18.285 12.19H16.765V15.24H18.285V12.19Z" fill="#000001"/>
<path d="M15.245 19.81H13.715V21.33H12.195V22.85H13.715V24.38H15.245V25.9H16.765V24.38H18.285V22.85H19.815V21.33H18.285V19.81H16.765V15.24H15.245V19.81Z" fill="#000001"/>
<path d="M16.765 10.66H15.245V12.19H16.765V10.66Z" fill="#000001"/>
<path d="M15.245 12.19H13.715V15.24H15.245V12.19Z" fill="#000001"/>
<path d="M13.715 15.24H12.195V18.28H13.715V15.24Z" fill="#000001"/>
<path d="M13.715 6.09H12.195V7.62H13.715V6.09Z" fill="#000001"/>
<path d="M12.195 25.9H10.675V27.43H12.195V25.9Z" fill="#000001"/>
<path d="M12.195 18.28H10.675V19.81H12.195V18.28Z" fill="#000001"/>
<path d="M12.195 7.62H10.675V9.14H12.195V7.62Z" fill="#000001"/>
<path d="M10.675 19.81H9.14499V25.9H10.675V19.81Z" fill="#000001"/>
<path d="M10.675 9.14H9.14499V10.66H10.675V9.14Z" fill="#000001"/>
<path d="M9.145 10.66H7.625V12.19H9.145V10.66Z" fill="#000001"/>
<path d="M6.09499 10.66H4.57499V12.19H3.05499V13.71H1.52499V15.24H3.05499V16.76H4.57499V18.28H6.09499V16.76H7.62499V15.24H9.14499V13.71H7.62499V12.19H6.09499V10.66Z" fill="#000001"/>
</g>
<defs>
<clipPath id="clip0_1128_25871">
<rect width="32" height="32" fill="white"/>
</clipPath>
</defs>
</svg>
