<svg viewBox="0 0 1024 1024" xmlns="http://www.w3.org/2000/svg">
  <path d="M0 170.666667v629.888h305.28a320.853333 320.853333 0 0 0 82.346667-10.581334 219.648 219.648 0 0 0 71.68-32.725333 160.725333 160.725333 0 0 0 49.792-57.002667c12.202667-23.125333 18.346667-50.645333 18.346666-82.602666 0-39.381333-9.386667-72.96-28.501333-101.077334-19.029333-27.904-47.744-47.530667-86.528-58.624 28.501333-13.525333 49.749333-30.848 64.256-51.968 14.421333-21.205333 21.589333-47.658667 21.589333-79.36 0-29.354667-4.778667-54.144-14.378666-73.941333a122.026667 122.026667 0 0 0-41.088-48.042667 179.285333 179.285333 0 0 0-63.658667-25.984A387.925333 387.925333 0 0 0 296.96 170.666667H0z m668.458667 42.24v62.165333h255.36V212.906667h-255.36zM138.709333 277.930667h129.706667c12.288 0 24.277333 0.853333 35.712 3.114666 11.605333 2.005333 21.674667 5.717333 30.506667 11.093334 8.96 5.12 16.042667 12.501333 21.418666 21.888 5.12 9.386667 7.68 21.504 7.68 36.138666 0 26.453333-7.722667 45.653333-23.68 57.301334-16.128 11.861333-36.437333 17.706667-61.013333 17.706666H138.666667v-147.2z m663.253334 53.632c-34.986667 0-66.517333 6.229333-95.146667 18.602666-28.586667 12.373333-53.162667 29.312-73.856 50.816a223.872 223.872 0 0 0-47.786667 76.416 267.52 267.52 0 0 0-16.853333 95.402667c0 35.285333 5.504 67.84 16.384 97.237333 11.008 29.525333 26.453333 54.698667 46.336 75.946667a206.506667 206.506667 0 0 0 73.642667 49.066667c29.013333 11.52 61.354667 17.28 97.28 17.28 51.541333 0 95.786667-11.818667 132.053333-35.498667 36.693333-23.594667 63.573333-62.762667 81.322667-117.674667h-110.293334c-4.266667 14.08-15.36 27.733333-33.450666 40.405334-18.346667 12.757333-40.192 19.2-65.450667 19.2-35.157333 0-62.293333-9.301333-81.024-27.605334-18.816-18.346667-31.018667-52.437333-31.018667-88.490666h329.088a323.029333 323.029333 0 0 0-8.704-101.546667 247.253333 247.253333 0 0 0-40.106666-86.570667A201.984 201.984 0 0 0 903.338667 354.133333c-29.013333-15.146667-62.72-22.613333-101.333334-22.613333z m-3.797334 94.592c30.762667 0 56.021333 8.917333 70.869334 25.386666 14.933333 16.64 25.898667 40.234667 28.885333 72.192h-203.818667a141.653333 141.653333 0 0 1 5.717334-30.08c3.2-11.392 8.704-22.016 16.810666-32.128 8.106667-9.898667 18.773333-18.346667 31.744-25.173333 13.226667-6.826667 29.781333-10.24 49.792-10.24zM138.709333 519.850667h150.741334c29.866667 0 54.144 6.826667 72.32 20.608 18.176 13.994667 27.306667 37.077333 27.306666 69.546666 0 16.554667-2.688 30.250667-8.277333 40.789334-5.546667 10.666667-13.226667 19.072-22.528 25.173333-9.258667 6.357333-20.266667 10.666667-32.682667 13.354667-12.202667 2.730667-25.173333 3.925333-38.912 3.925333H138.752v-173.397333z" fill="#1769FF"/>
</svg>
